<svg width="700" height="700" viewBox="0 0 700 700" xmlns="http://www.w3.org/2000/svg">
  <rect width="700" height="700" fill="#4a4444"/>
  <!-- overlapping speech bubbles -->
  <path d="M430 210c84 0 152 54 152 120s-68 120-152 120h-18l-64 48 18-48c-54-14-92-55-92-120 0-66 72-120 156-120z" fill="none" stroke="#f5f3f2" stroke-width="20" stroke-linejoin="round"/>
  <path d="M280 180c-84 0-152 54-152 120 0 48 30 88 80 109l-16 44 58-44h30c84 0 152-54 152-120s-68-109-152-109z" fill="none" stroke="#f5f3f2" stroke-width="20" stroke-linejoin="round"/>
  <text x="350" y="640" text-anchor="middle" font-size="54" fill="#f5f3f2" font-family="Inter, system-ui, -apple-system, Segoe UI, Roboto, Helvetica, Arial">GOOD-FORUM</text>
</svg>
