<svg width="700" height="700" viewBox="0 0 700 700" xmlns="http://www.w3.org/2000/svg">
  <rect width="700" height="700" fill="#4a4444"/>
  <!-- sun -->
  <circle cx="220" cy="240" r="70" fill="none" stroke="#f5f3f2" stroke-width="22"/>
  <g stroke="#f5f3f2" stroke-width="16">
    <line x1="220" y1="135" x2="220" y2="90"/><line x1="220" y1="390" x2="220" y2="345"/>
    <line x1="115" y1="240" x2="70" y2="240"/><line x1="370" y1="240" x2="325" y2="240"/>
    <line x1="150" y1="170" x2="115" y2="135"/><line x1="290" y1="345" x2="325" y2="380"/>
    <line x1="150" y1="310" x2="115" y2="345"/><line x1="290" y1="135" x2="325" y2="100"/>
  </g>
  <!-- cloud -->
  <path d="M200 420c-40 0-72 32-72 72s32 72 72 72h250c54 0 98-44 98-98s-44-98-98-98c-7 0-14 1-21 2-13-49-58-85-111-85-64 0-117 52-117 117" fill="none" stroke="#f5f3f2" stroke-width="22"/>
  <!-- rain -->
  <g fill="#f5f3f2">
    <circle cx="280" cy="605" r="10"/><circle cx="340" cy="605" r="10"/><circle cx="400" cy="605" r="10"/>
  </g>
  <text x="350" y="660" text-anchor="middle" font-size="54" fill="#f5f3f2" font-family="Inter, system-ui, -apple-system, Segoe UI, Roboto, Helvetica, Arial">WEATHER APP</text>
</svg>